<mxfile host="app.diagrams.net" agent="Mozilla/5.0 (Macintosh; Intel Mac OS X 10_15_7) AppleWebKit/537.36 (KHTML, like Gecko) Chrome/126.0.0.0 Safari/537.36" border="50" scale="3" compressed="false" locked="false" version="24.7.13">
  <diagram name="Blank" id="YmL12bMKpDGza6XwsDPr">
    <mxGraphModel dx="3551" dy="729" grid="0" gridSize="10" guides="1" tooltips="1" connect="1" arrows="1" fold="1" page="0" pageScale="1" pageWidth="827" pageHeight="1169" background="none" math="1" shadow="0">
      <root>
        <mxCell id="X5NqExCQtvZxIxQ7pmgY-0" />
        <mxCell id="1" parent="X5NqExCQtvZxIxQ7pmgY-0" />
        <mxCell id="09KfeINo08MftnEIUnq--1" value="&lt;h1 style=&quot;margin-top: 0px;&quot;&gt;&lt;span style=&quot;background-color: initial;&quot;&gt;Mind Map&lt;span style=&quot;font-size: 12px; font-weight: 400;&quot;&gt;&lt;br&gt;&lt;/span&gt;&lt;/span&gt;&lt;span style=&quot;font-size: 12px; font-weight: 400;&quot;&gt;Michael - Artist/Singer/Vocal Coach&lt;/span&gt;&lt;/h1&gt;" style="text;html=1;whiteSpace=wrap;overflow=hidden;rounded=0;" vertex="1" parent="1">
          <mxGeometry x="-1108" y="754.5" width="222" height="72" as="geometry" />
        </mxCell>
        <mxCell id="09KfeINo08MftnEIUnq--22" style="rounded=0;orthogonalLoop=1;jettySize=auto;html=1;exitX=0;exitY=0.5;exitDx=0;exitDy=0;entryX=1;entryY=0.5;entryDx=0;entryDy=0;endArrow=none;endFill=0;fontSize=16;strokeWidth=5;" edge="1" parent="1" source="09KfeINo08MftnEIUnq--2" target="09KfeINo08MftnEIUnq--7">
          <mxGeometry relative="1" as="geometry" />
        </mxCell>
        <mxCell id="09KfeINo08MftnEIUnq--41" style="rounded=0;orthogonalLoop=1;jettySize=auto;html=1;exitX=1;exitY=0;exitDx=0;exitDy=0;endArrow=none;endFill=0;strokeWidth=5;" edge="1" parent="1" source="09KfeINo08MftnEIUnq--2" target="09KfeINo08MftnEIUnq--5">
          <mxGeometry relative="1" as="geometry" />
        </mxCell>
        <mxCell id="09KfeINo08MftnEIUnq--42" style="rounded=0;orthogonalLoop=1;jettySize=auto;html=1;exitX=0.5;exitY=1;exitDx=0;exitDy=0;entryX=0.5;entryY=0;entryDx=0;entryDy=0;endArrow=none;endFill=0;strokeWidth=5;" edge="1" parent="1" source="09KfeINo08MftnEIUnq--2" target="09KfeINo08MftnEIUnq--6">
          <mxGeometry relative="1" as="geometry" />
        </mxCell>
        <mxCell id="09KfeINo08MftnEIUnq--2" value="Solving a singing/ vocal problem" style="ellipse;whiteSpace=wrap;html=1;aspect=fixed;fontSize=16;" vertex="1" parent="1">
          <mxGeometry x="-742" y="964.5" width="119" height="119" as="geometry" />
        </mxCell>
        <mxCell id="09KfeINo08MftnEIUnq--39" style="rounded=0;orthogonalLoop=1;jettySize=auto;html=1;exitX=0.5;exitY=0;exitDx=0;exitDy=0;endArrow=none;endFill=0;strokeWidth=2;" edge="1" parent="1" source="09KfeINo08MftnEIUnq--5" target="09KfeINo08MftnEIUnq--36">
          <mxGeometry relative="1" as="geometry" />
        </mxCell>
        <mxCell id="09KfeINo08MftnEIUnq--5" value="Define" style="ellipse;whiteSpace=wrap;html=1;aspect=fixed;fontSize=16;" vertex="1" parent="1">
          <mxGeometry x="-564" y="910.5" width="80" height="80" as="geometry" />
        </mxCell>
        <mxCell id="09KfeINo08MftnEIUnq--31" style="rounded=0;orthogonalLoop=1;jettySize=auto;html=1;exitX=0;exitY=1;exitDx=0;exitDy=0;endArrow=none;endFill=0;strokeWidth=2;" edge="1" parent="1" source="09KfeINo08MftnEIUnq--6" target="09KfeINo08MftnEIUnq--25">
          <mxGeometry relative="1" as="geometry" />
        </mxCell>
        <mxCell id="09KfeINo08MftnEIUnq--32" style="rounded=0;orthogonalLoop=1;jettySize=auto;html=1;exitX=1;exitY=1;exitDx=0;exitDy=0;entryX=0.25;entryY=0;entryDx=0;entryDy=0;endArrow=none;endFill=0;strokeWidth=2;" edge="1" parent="1" source="09KfeINo08MftnEIUnq--6" target="09KfeINo08MftnEIUnq--26">
          <mxGeometry relative="1" as="geometry" />
        </mxCell>
        <mxCell id="09KfeINo08MftnEIUnq--33" style="rounded=0;orthogonalLoop=1;jettySize=auto;html=1;exitX=1;exitY=0.5;exitDx=0;exitDy=0;endArrow=none;endFill=0;strokeWidth=2;" edge="1" parent="1" source="09KfeINo08MftnEIUnq--6" target="09KfeINo08MftnEIUnq--23">
          <mxGeometry relative="1" as="geometry" />
        </mxCell>
        <mxCell id="09KfeINo08MftnEIUnq--6" value="Tools" style="ellipse;whiteSpace=wrap;html=1;aspect=fixed;fontSize=16;" vertex="1" parent="1">
          <mxGeometry x="-715.5" y="1166.5" width="80" height="80" as="geometry" />
        </mxCell>
        <mxCell id="09KfeINo08MftnEIUnq--20" style="rounded=0;orthogonalLoop=1;jettySize=auto;html=1;entryX=1;entryY=0.25;entryDx=0;entryDy=0;endArrow=none;endFill=0;fontSize=16;strokeWidth=3;" edge="1" parent="1" source="09KfeINo08MftnEIUnq--7" target="09KfeINo08MftnEIUnq--10">
          <mxGeometry relative="1" as="geometry" />
        </mxCell>
        <mxCell id="09KfeINo08MftnEIUnq--21" style="rounded=0;orthogonalLoop=1;jettySize=auto;html=1;exitX=0.5;exitY=1;exitDx=0;exitDy=0;endArrow=none;endFill=0;fontSize=16;strokeWidth=3;" edge="1" parent="1" source="09KfeINo08MftnEIUnq--7" target="09KfeINo08MftnEIUnq--11">
          <mxGeometry relative="1" as="geometry" />
        </mxCell>
        <mxCell id="09KfeINo08MftnEIUnq--57" style="rounded=0;orthogonalLoop=1;jettySize=auto;html=1;exitX=1;exitY=0.5;exitDx=0;exitDy=0;entryX=0;entryY=0.5;entryDx=0;entryDy=0;endArrow=none;endFill=0;strokeWidth=2;" edge="1" parent="1" source="09KfeINo08MftnEIUnq--7" target="09KfeINo08MftnEIUnq--54">
          <mxGeometry relative="1" as="geometry" />
        </mxCell>
        <mxCell id="09KfeINo08MftnEIUnq--7" value="Practice" style="ellipse;whiteSpace=wrap;html=1;aspect=fixed;fontSize=16;" vertex="1" parent="1">
          <mxGeometry x="-1002" y="1086.5" width="80" height="80" as="geometry" />
        </mxCell>
        <mxCell id="09KfeINo08MftnEIUnq--19" style="edgeStyle=orthogonalEdgeStyle;rounded=0;orthogonalLoop=1;jettySize=auto;html=1;entryX=0;entryY=0.5;entryDx=0;entryDy=0;curved=1;fontSize=16;strokeColor=#67AB9F;" edge="1" parent="1" source="09KfeINo08MftnEIUnq--10" target="09KfeINo08MftnEIUnq--12">
          <mxGeometry relative="1" as="geometry">
            <Array as="points">
              <mxPoint x="-1117" y="989.5" />
            </Array>
          </mxGeometry>
        </mxCell>
        <mxCell id="09KfeINo08MftnEIUnq--10" value="Adjust approach" style="rounded=1;whiteSpace=wrap;html=1;fontSize=16;fillColor=#67AB9F;" vertex="1" parent="1">
          <mxGeometry x="-1177" y="1110.5" width="95" height="69" as="geometry" />
        </mxCell>
        <mxCell id="09KfeINo08MftnEIUnq--14" style="edgeStyle=orthogonalEdgeStyle;rounded=0;orthogonalLoop=1;jettySize=auto;html=1;curved=1;fontSize=16;strokeColor=#67AB9F;" edge="1" parent="1" source="09KfeINo08MftnEIUnq--11" target="09KfeINo08MftnEIUnq--10">
          <mxGeometry relative="1" as="geometry" />
        </mxCell>
        <mxCell id="09KfeINo08MftnEIUnq--11" value="Isolate the issue" style="rounded=1;whiteSpace=wrap;html=1;fontSize=16;fillColor=#67AB9F;" vertex="1" parent="1">
          <mxGeometry x="-1010" y="1226.5" width="96" height="59" as="geometry" />
        </mxCell>
        <mxCell id="09KfeINo08MftnEIUnq--55" style="edgeStyle=orthogonalEdgeStyle;rounded=0;orthogonalLoop=1;jettySize=auto;html=1;exitX=1;exitY=0.5;exitDx=0;exitDy=0;entryX=0.5;entryY=0;entryDx=0;entryDy=0;curved=1;" edge="1" parent="1" source="09KfeINo08MftnEIUnq--12" target="09KfeINo08MftnEIUnq--54">
          <mxGeometry relative="1" as="geometry">
            <Array as="points">
              <mxPoint x="-804" y="989.5" />
            </Array>
          </mxGeometry>
        </mxCell>
        <mxCell id="09KfeINo08MftnEIUnq--12" value="Slow repetition, muscle memory development" style="rounded=1;whiteSpace=wrap;html=1;fontSize=16;fillColor=#67AB9F;" vertex="1" parent="1">
          <mxGeometry x="-1016" y="958.5" width="120" height="60" as="geometry" />
        </mxCell>
        <mxCell id="09KfeINo08MftnEIUnq--18" style="edgeStyle=orthogonalEdgeStyle;rounded=0;orthogonalLoop=1;jettySize=auto;html=1;exitX=0.5;exitY=0;exitDx=0;exitDy=0;endArrow=none;endFill=0;fontSize=16;strokeWidth=3;" edge="1" parent="1" source="09KfeINo08MftnEIUnq--7">
          <mxGeometry relative="1" as="geometry">
            <mxPoint x="-960" y="1020.5" as="targetPoint" />
            <Array as="points">
              <mxPoint x="-962" y="1020.5" />
            </Array>
          </mxGeometry>
        </mxCell>
        <mxCell id="09KfeINo08MftnEIUnq--30" style="rounded=0;orthogonalLoop=1;jettySize=auto;html=1;entryX=0.5;entryY=1;entryDx=0;entryDy=0;strokeColor=#976363;" edge="1" parent="1" source="09KfeINo08MftnEIUnq--23" target="09KfeINo08MftnEIUnq--12">
          <mxGeometry relative="1" as="geometry" />
        </mxCell>
        <mxCell id="09KfeINo08MftnEIUnq--23" value="Mentorship" style="rounded=1;whiteSpace=wrap;html=1;fontSize=16;" vertex="1" parent="1">
          <mxGeometry x="-548" y="1166.5" width="120" height="60" as="geometry" />
        </mxCell>
        <mxCell id="09KfeINo08MftnEIUnq--28" style="rounded=0;orthogonalLoop=1;jettySize=auto;html=1;entryX=0.5;entryY=1;entryDx=0;entryDy=0;strokeColor=#976363;" edge="1" parent="1" source="09KfeINo08MftnEIUnq--25" target="09KfeINo08MftnEIUnq--11">
          <mxGeometry relative="1" as="geometry" />
        </mxCell>
        <mxCell id="09KfeINo08MftnEIUnq--25" value="Feedback" style="rounded=1;whiteSpace=wrap;html=1;fontSize=16;" vertex="1" parent="1">
          <mxGeometry x="-760" y="1307.5" width="120" height="60" as="geometry" />
        </mxCell>
        <mxCell id="09KfeINo08MftnEIUnq--29" style="rounded=0;orthogonalLoop=1;jettySize=auto;html=1;entryX=1;entryY=0.5;entryDx=0;entryDy=0;strokeColor=#976363;" edge="1" parent="1" source="09KfeINo08MftnEIUnq--26" target="09KfeINo08MftnEIUnq--10">
          <mxGeometry relative="1" as="geometry" />
        </mxCell>
        <mxCell id="09KfeINo08MftnEIUnq--26" value="Experimentation" style="rounded=1;whiteSpace=wrap;html=1;fontSize=16;" vertex="1" parent="1">
          <mxGeometry x="-595" y="1277.5" width="120" height="60" as="geometry" />
        </mxCell>
        <mxCell id="09KfeINo08MftnEIUnq--51" style="rounded=0;orthogonalLoop=1;jettySize=auto;html=1;exitX=1;exitY=0;exitDx=0;exitDy=0;entryX=0;entryY=1;entryDx=0;entryDy=0;endArrow=none;endFill=0;" edge="1" parent="1" source="09KfeINo08MftnEIUnq--34" target="09KfeINo08MftnEIUnq--44">
          <mxGeometry relative="1" as="geometry" />
        </mxCell>
        <mxCell id="09KfeINo08MftnEIUnq--34" value="&lt;font style=&quot;font-size: 16px;&quot;&gt;Recognize issue&lt;/font&gt;" style="rounded=1;whiteSpace=wrap;html=1;" vertex="1" parent="1">
          <mxGeometry x="-626" y="787.5" width="78" height="60" as="geometry" />
        </mxCell>
        <mxCell id="09KfeINo08MftnEIUnq--46" style="rounded=0;orthogonalLoop=1;jettySize=auto;html=1;exitX=1;exitY=0;exitDx=0;exitDy=0;entryX=0.5;entryY=1;entryDx=0;entryDy=0;endArrow=none;endFill=0;" edge="1" parent="1" source="09KfeINo08MftnEIUnq--36" target="09KfeINo08MftnEIUnq--45">
          <mxGeometry relative="1" as="geometry" />
        </mxCell>
        <mxCell id="09KfeINo08MftnEIUnq--48" style="rounded=0;orthogonalLoop=1;jettySize=auto;html=1;exitX=1;exitY=1;exitDx=0;exitDy=0;entryX=0;entryY=0.5;entryDx=0;entryDy=0;endArrow=none;endFill=0;" edge="1" parent="1" source="09KfeINo08MftnEIUnq--36" target="09KfeINo08MftnEIUnq--43">
          <mxGeometry relative="1" as="geometry" />
        </mxCell>
        <mxCell id="09KfeINo08MftnEIUnq--36" value="&lt;font size=&quot;1&quot; style=&quot;&quot;&gt;&lt;span style=&quot;font-size: 16px;&quot;&gt;Vocal Benchmarks&lt;/span&gt;&lt;/font&gt;" style="rounded=1;whiteSpace=wrap;html=1;" vertex="1" parent="1">
          <mxGeometry x="-440" y="802.5" width="120" height="60" as="geometry" />
        </mxCell>
        <mxCell id="09KfeINo08MftnEIUnq--49" style="rounded=0;orthogonalLoop=1;jettySize=auto;html=1;exitX=1;exitY=0;exitDx=0;exitDy=0;entryX=0;entryY=1;entryDx=0;entryDy=0;endArrow=none;endFill=0;" edge="1" parent="1" source="09KfeINo08MftnEIUnq--37" target="09KfeINo08MftnEIUnq--43">
          <mxGeometry relative="1" as="geometry" />
        </mxCell>
        <mxCell id="09KfeINo08MftnEIUnq--37" value="&lt;font style=&quot;font-size: 16px;&quot;&gt;Run through, sight read&lt;/font&gt;" style="rounded=1;whiteSpace=wrap;html=1;" vertex="1" parent="1">
          <mxGeometry x="-399" y="920.5" width="120" height="60" as="geometry" />
        </mxCell>
        <mxCell id="09KfeINo08MftnEIUnq--38" style="rounded=0;orthogonalLoop=1;jettySize=auto;html=1;exitX=0;exitY=0;exitDx=0;exitDy=0;entryX=0.909;entryY=0.947;entryDx=0;entryDy=0;entryPerimeter=0;endArrow=none;endFill=0;strokeWidth=2;" edge="1" parent="1" source="09KfeINo08MftnEIUnq--5" target="09KfeINo08MftnEIUnq--34">
          <mxGeometry relative="1" as="geometry" />
        </mxCell>
        <mxCell id="09KfeINo08MftnEIUnq--40" style="rounded=0;orthogonalLoop=1;jettySize=auto;html=1;exitX=1;exitY=0.5;exitDx=0;exitDy=0;entryX=0.027;entryY=0.422;entryDx=0;entryDy=0;entryPerimeter=0;endArrow=none;endFill=0;strokeWidth=2;" edge="1" parent="1" source="09KfeINo08MftnEIUnq--5" target="09KfeINo08MftnEIUnq--37">
          <mxGeometry relative="1" as="geometry" />
        </mxCell>
        <mxCell id="09KfeINo08MftnEIUnq--43" value="baselines" style="ellipse;whiteSpace=wrap;html=1;" vertex="1" parent="1">
          <mxGeometry x="-254" y="853.5" width="74" height="39" as="geometry" />
        </mxCell>
        <mxCell id="09KfeINo08MftnEIUnq--44" value="problem areas" style="ellipse;whiteSpace=wrap;html=1;" vertex="1" parent="1">
          <mxGeometry x="-507" y="720.5" width="82" height="42" as="geometry" />
        </mxCell>
        <mxCell id="09KfeINo08MftnEIUnq--45" value="reflection" style="ellipse;whiteSpace=wrap;html=1;" vertex="1" parent="1">
          <mxGeometry x="-317" y="724.5" width="67" height="42" as="geometry" />
        </mxCell>
        <mxCell id="09KfeINo08MftnEIUnq--47" style="rounded=0;orthogonalLoop=1;jettySize=auto;html=1;exitX=0;exitY=0;exitDx=0;exitDy=0;entryX=0.74;entryY=0.93;entryDx=0;entryDy=0;entryPerimeter=0;endArrow=none;endFill=0;" edge="1" parent="1" source="09KfeINo08MftnEIUnq--36" target="09KfeINo08MftnEIUnq--44">
          <mxGeometry relative="1" as="geometry" />
        </mxCell>
        <mxCell id="09KfeINo08MftnEIUnq--52" value="&lt;h1 style=&quot;margin-top: 0px;&quot;&gt;Tools as support&lt;/h1&gt;&lt;div&gt;In this interview, Micheal described the practicing process as ongoing, constantly striving for the best performance. To do this the process is supported by tools including mentorship, experimentation, and feedback to facilitate practicing.&lt;/div&gt;" style="text;html=1;whiteSpace=wrap;overflow=hidden;rounded=0;" vertex="1" parent="1">
          <mxGeometry x="-465" y="1249.5" width="283" height="129" as="geometry" />
        </mxCell>
        <mxCell id="09KfeINo08MftnEIUnq--53" value="&lt;h1 style=&quot;margin-top: 0px;&quot;&gt;Identification&lt;/h1&gt;&lt;div&gt;When solving issues with a performance, its important to set some benchmarks of where the artist is currently, and what steps they can take to improve their performance. Useful tools for achieving this includes a full run through, say with a mentor, and reflecting on vocal benchmarks to arrive at a conclusion about what can be improved.&lt;/div&gt;" style="text;html=1;whiteSpace=wrap;overflow=hidden;rounded=0;align=right;" vertex="1" parent="1">
          <mxGeometry x="-911" y="776.5" width="271" height="171" as="geometry" />
        </mxCell>
        <mxCell id="09KfeINo08MftnEIUnq--56" style="edgeStyle=orthogonalEdgeStyle;rounded=0;orthogonalLoop=1;jettySize=auto;html=1;entryX=1;entryY=0.5;entryDx=0;entryDy=0;curved=1;" edge="1" parent="1" source="09KfeINo08MftnEIUnq--54" target="09KfeINo08MftnEIUnq--11">
          <mxGeometry relative="1" as="geometry">
            <Array as="points">
              <mxPoint x="-802" y="1256.5" />
            </Array>
          </mxGeometry>
        </mxCell>
        <mxCell id="09KfeINo08MftnEIUnq--54" value="&lt;font style=&quot;font-size: 16px;&quot;&gt;Perform/ Execute&lt;/font&gt;" style="rounded=1;whiteSpace=wrap;html=1;fillColor=#67AB9F;" vertex="1" parent="1">
          <mxGeometry x="-836" y="1104.5" width="77" height="62" as="geometry" />
        </mxCell>
        <mxCell id="09KfeINo08MftnEIUnq--58" value="&lt;h1 style=&quot;margin-top: 0px;&quot;&gt;&lt;span style=&quot;background-color: initial;&quot;&gt;Mind Map&lt;span style=&quot;font-size: 12px; font-weight: 400;&quot;&gt;&lt;br&gt;&lt;/span&gt;&lt;/span&gt;&lt;span style=&quot;font-size: 12px; font-weight: 400;&quot;&gt;Marlene - Accountant, Business&lt;/span&gt;&lt;/h1&gt;" style="text;html=1;whiteSpace=wrap;overflow=hidden;rounded=0;" vertex="1" parent="1">
          <mxGeometry x="-86" y="787" width="222" height="72" as="geometry" />
        </mxCell>
        <mxCell id="09KfeINo08MftnEIUnq--59" value="Solving a accounting/business problem" style="ellipse;whiteSpace=wrap;html=1;aspect=fixed;fontSize=16;" vertex="1" parent="1">
          <mxGeometry x="355" y="961" width="147" height="147" as="geometry" />
        </mxCell>
        <mxCell id="09KfeINo08MftnEIUnq--60" value="Asses" style="rounded=1;whiteSpace=wrap;html=1;fontSize=16;fillColor=#fff2cc;strokeColor=#d6b656;" vertex="1" parent="1">
          <mxGeometry x="95" y="1205" width="120" height="60" as="geometry" />
        </mxCell>
        <mxCell id="09KfeINo08MftnEIUnq--61" value="Plan" style="rounded=1;whiteSpace=wrap;html=1;fontSize=16;fillColor=#fff2cc;strokeColor=#d6b656;" vertex="1" parent="1">
          <mxGeometry x="521" y="1096" width="120" height="60" as="geometry" />
        </mxCell>
        <mxCell id="09KfeINo08MftnEIUnq--62" value="Execute" style="rounded=1;whiteSpace=wrap;html=1;fontSize=16;fillColor=#fff2cc;strokeColor=#d6b656;" vertex="1" parent="1">
          <mxGeometry x="650" y="978" width="120" height="60" as="geometry" />
        </mxCell>
        <mxCell id="09KfeINo08MftnEIUnq--63" value="Communicate" style="rounded=1;whiteSpace=wrap;html=1;fontSize=16;fillColor=#fff2cc;strokeColor=#d6b656;" vertex="1" parent="1">
          <mxGeometry x="763" y="816" width="120" height="60" as="geometry" />
        </mxCell>
        <mxCell id="09KfeINo08MftnEIUnq--64" value="Consult" style="rounded=1;whiteSpace=wrap;html=1;fontSize=16;fillColor=#fff2cc;strokeColor=#d6b656;" vertex="1" parent="1">
          <mxGeometry x="317" y="1205" width="120" height="60" as="geometry" />
        </mxCell>
        <mxCell id="09KfeINo08MftnEIUnq--66" value="" style="curved=1;endArrow=classic;html=1;rounded=0;endSize=20;strokeWidth=3;entryX=1;entryY=0;entryDx=0;entryDy=0;exitX=0;exitY=0.5;exitDx=0;exitDy=0;" edge="1" parent="1" source="09KfeINo08MftnEIUnq--59" target="09KfeINo08MftnEIUnq--59">
          <mxGeometry width="50" height="50" relative="1" as="geometry">
            <mxPoint x="375.6170662532288" y="1067.2733522114077" as="sourcePoint" />
            <mxPoint x="515.6190000000001" y="1017.3049999999998" as="targetPoint" />
            <Array as="points">
              <mxPoint x="184" y="1130" />
              <mxPoint x="-7" y="1264" />
              <mxPoint x="369" y="1304" />
              <mxPoint x="579" y="1201" />
              <mxPoint x="703" y="1106" />
              <mxPoint x="889" y="923" />
              <mxPoint x="914" y="728" />
              <mxPoint x="714" y="838" />
            </Array>
          </mxGeometry>
        </mxCell>
        <mxCell id="09KfeINo08MftnEIUnq--79" style="rounded=0;orthogonalLoop=1;jettySize=auto;html=1;endArrow=none;endFill=0;" edge="1" parent="1" source="09KfeINo08MftnEIUnq--68" target="09KfeINo08MftnEIUnq--60">
          <mxGeometry relative="1" as="geometry" />
        </mxCell>
        <mxCell id="09KfeINo08MftnEIUnq--68" value="Edge cases" style="ellipse;whiteSpace=wrap;html=1;" vertex="1" parent="1">
          <mxGeometry x="-75" y="1247" width="120" height="80" as="geometry" />
        </mxCell>
        <mxCell id="09KfeINo08MftnEIUnq--80" style="rounded=0;orthogonalLoop=1;jettySize=auto;html=1;exitX=0.5;exitY=0;exitDx=0;exitDy=0;endArrow=none;endFill=0;" edge="1" parent="1" source="09KfeINo08MftnEIUnq--69" target="09KfeINo08MftnEIUnq--60">
          <mxGeometry relative="1" as="geometry" />
        </mxCell>
        <mxCell id="09KfeINo08MftnEIUnq--69" value="Problem definition, clarifying question" style="ellipse;whiteSpace=wrap;html=1;" vertex="1" parent="1">
          <mxGeometry x="58" y="1306" width="120" height="80" as="geometry" />
        </mxCell>
        <mxCell id="09KfeINo08MftnEIUnq--81" style="rounded=0;orthogonalLoop=1;jettySize=auto;html=1;endArrow=none;endFill=0;" edge="1" parent="1" source="09KfeINo08MftnEIUnq--70" target="09KfeINo08MftnEIUnq--64">
          <mxGeometry relative="1" as="geometry" />
        </mxCell>
        <mxCell id="09KfeINo08MftnEIUnq--70" value="Subject matter experts" style="ellipse;whiteSpace=wrap;html=1;" vertex="1" parent="1">
          <mxGeometry x="209" y="1319" width="120" height="80" as="geometry" />
        </mxCell>
        <mxCell id="09KfeINo08MftnEIUnq--71" value="Previous work" style="ellipse;whiteSpace=wrap;html=1;" vertex="1" parent="1">
          <mxGeometry x="349" y="1299" width="120" height="80" as="geometry" />
        </mxCell>
        <mxCell id="09KfeINo08MftnEIUnq--83" style="rounded=0;orthogonalLoop=1;jettySize=auto;html=1;endArrow=none;endFill=0;" edge="1" parent="1" source="09KfeINo08MftnEIUnq--72" target="09KfeINo08MftnEIUnq--64">
          <mxGeometry relative="1" as="geometry" />
        </mxCell>
        <mxCell id="09KfeINo08MftnEIUnq--72" value="Resources (labor time, research)" style="ellipse;whiteSpace=wrap;html=1;" vertex="1" parent="1">
          <mxGeometry x="477" y="1253" width="120" height="80" as="geometry" />
        </mxCell>
        <mxCell id="09KfeINo08MftnEIUnq--85" style="rounded=0;orthogonalLoop=1;jettySize=auto;html=1;exitX=0;exitY=0.5;exitDx=0;exitDy=0;endArrow=none;endFill=0;" edge="1" parent="1" source="09KfeINo08MftnEIUnq--73" target="09KfeINo08MftnEIUnq--61">
          <mxGeometry relative="1" as="geometry" />
        </mxCell>
        <mxCell id="09KfeINo08MftnEIUnq--73" value="Optimal Strategy" style="ellipse;whiteSpace=wrap;html=1;" vertex="1" parent="1">
          <mxGeometry x="699" y="1102" width="120" height="80" as="geometry" />
        </mxCell>
        <mxCell id="09KfeINo08MftnEIUnq--84" style="rounded=0;orthogonalLoop=1;jettySize=auto;html=1;exitX=0.5;exitY=0;exitDx=0;exitDy=0;endArrow=none;endFill=0;" edge="1" parent="1" source="09KfeINo08MftnEIUnq--74" target="09KfeINo08MftnEIUnq--61">
          <mxGeometry relative="1" as="geometry" />
        </mxCell>
        <mxCell id="09KfeINo08MftnEIUnq--74" value="Confirming amount" style="ellipse;whiteSpace=wrap;html=1;" vertex="1" parent="1">
          <mxGeometry x="593" y="1187" width="120" height="80" as="geometry" />
        </mxCell>
        <mxCell id="09KfeINo08MftnEIUnq--87" style="rounded=0;orthogonalLoop=1;jettySize=auto;html=1;exitX=0;exitY=0.5;exitDx=0;exitDy=0;endArrow=none;endFill=0;" edge="1" parent="1" source="09KfeINo08MftnEIUnq--75" target="09KfeINo08MftnEIUnq--62">
          <mxGeometry relative="1" as="geometry" />
        </mxCell>
        <mxCell id="09KfeINo08MftnEIUnq--75" value="Efficiency considerations" style="ellipse;whiteSpace=wrap;html=1;" vertex="1" parent="1">
          <mxGeometry x="883" y="932" width="120" height="80" as="geometry" />
        </mxCell>
        <mxCell id="09KfeINo08MftnEIUnq--88" style="rounded=0;orthogonalLoop=1;jettySize=auto;html=1;endArrow=none;endFill=0;" edge="1" parent="1" source="09KfeINo08MftnEIUnq--76" target="09KfeINo08MftnEIUnq--63">
          <mxGeometry relative="1" as="geometry" />
        </mxCell>
        <mxCell id="09KfeINo08MftnEIUnq--76" value="Presenting finding" style="ellipse;whiteSpace=wrap;html=1;" vertex="1" parent="1">
          <mxGeometry x="940" y="823" width="120" height="80" as="geometry" />
        </mxCell>
        <mxCell id="09KfeINo08MftnEIUnq--77" value="Organized Deliverables" style="ellipse;whiteSpace=wrap;html=1;" vertex="1" parent="1">
          <mxGeometry x="961" y="721" width="120" height="80" as="geometry" />
        </mxCell>
        <mxCell id="09KfeINo08MftnEIUnq--86" style="rounded=0;orthogonalLoop=1;jettySize=auto;html=1;endArrow=none;endFill=0;" edge="1" parent="1" source="09KfeINo08MftnEIUnq--78" target="09KfeINo08MftnEIUnq--62">
          <mxGeometry relative="1" as="geometry" />
        </mxCell>
        <mxCell id="09KfeINo08MftnEIUnq--78" value="Small iterations, improvments" style="ellipse;whiteSpace=wrap;html=1;" vertex="1" parent="1">
          <mxGeometry x="805" y="1016" width="120" height="80" as="geometry" />
        </mxCell>
        <mxCell id="09KfeINo08MftnEIUnq--82" style="rounded=0;orthogonalLoop=1;jettySize=auto;html=1;entryX=0.475;entryY=0.949;entryDx=0;entryDy=0;entryPerimeter=0;endArrow=none;endFill=0;" edge="1" parent="1" source="09KfeINo08MftnEIUnq--71" target="09KfeINo08MftnEIUnq--64">
          <mxGeometry relative="1" as="geometry" />
        </mxCell>
        <mxCell id="09KfeINo08MftnEIUnq--89" style="rounded=0;orthogonalLoop=1;jettySize=auto;html=1;exitX=0;exitY=0.5;exitDx=0;exitDy=0;entryX=1.001;entryY=0.403;entryDx=0;entryDy=0;entryPerimeter=0;endArrow=none;endFill=0;" edge="1" parent="1" source="09KfeINo08MftnEIUnq--77" target="09KfeINo08MftnEIUnq--63">
          <mxGeometry relative="1" as="geometry" />
        </mxCell>
        <mxCell id="09KfeINo08MftnEIUnq--90" value="&lt;h1 style=&quot;margin-top: 0px;&quot;&gt;Procedural problem solving&lt;/h1&gt;&lt;div&gt;During our interview, Marlene described a much more procedural problem solving process, where she sets out a definition of an accounting or business problem, and takes steps towards planning and implement and effective approach with minimal iterations of solutions within the process, but implementing changes over larger iterations.&lt;/div&gt;" style="text;html=1;whiteSpace=wrap;overflow=hidden;rounded=0;" vertex="1" parent="1">
          <mxGeometry x="-88" y="881" width="322" height="139" as="geometry" />
        </mxCell>
        <mxCell id="09KfeINo08MftnEIUnq--92" value="&lt;h1 style=&quot;margin-top: 0px;&quot;&gt;&lt;span style=&quot;background-color: initial;&quot;&gt;Mind Map&lt;span style=&quot;font-size: 12px; font-weight: 400;&quot;&gt;&lt;br&gt;&lt;/span&gt;&lt;/span&gt;&lt;span style=&quot;font-size: 12px; font-weight: 400;&quot;&gt;John - University teacher, psychologist&lt;/span&gt;&lt;/h1&gt;" style="text;html=1;whiteSpace=wrap;overflow=hidden;rounded=0;" vertex="1" parent="1">
          <mxGeometry x="1170" y="683" width="222" height="72" as="geometry" />
        </mxCell>
        <mxCell id="09KfeINo08MftnEIUnq--135" style="rounded=0;orthogonalLoop=1;jettySize=auto;html=1;exitX=0.5;exitY=1;exitDx=0;exitDy=0;endArrow=none;endFill=0;fontSize=16;" edge="1" parent="1" source="09KfeINo08MftnEIUnq--93" target="09KfeINo08MftnEIUnq--110">
          <mxGeometry relative="1" as="geometry" />
        </mxCell>
        <mxCell id="09KfeINo08MftnEIUnq--136" style="rounded=0;orthogonalLoop=1;jettySize=auto;html=1;exitX=1;exitY=1;exitDx=0;exitDy=0;endArrow=none;endFill=0;fontSize=16;" edge="1" parent="1" source="09KfeINo08MftnEIUnq--93" target="09KfeINo08MftnEIUnq--109">
          <mxGeometry relative="1" as="geometry" />
        </mxCell>
        <mxCell id="09KfeINo08MftnEIUnq--137" style="rounded=0;orthogonalLoop=1;jettySize=auto;html=1;exitX=1;exitY=0.5;exitDx=0;exitDy=0;endArrow=none;endFill=0;fontSize=16;" edge="1" parent="1" source="09KfeINo08MftnEIUnq--93" target="09KfeINo08MftnEIUnq--108">
          <mxGeometry relative="1" as="geometry" />
        </mxCell>
        <mxCell id="09KfeINo08MftnEIUnq--138" style="rounded=0;orthogonalLoop=1;jettySize=auto;html=1;exitX=1;exitY=0;exitDx=0;exitDy=0;entryX=1;entryY=0.5;entryDx=0;entryDy=0;endArrow=none;endFill=0;fontSize=16;" edge="1" parent="1" source="09KfeINo08MftnEIUnq--93" target="09KfeINo08MftnEIUnq--107">
          <mxGeometry relative="1" as="geometry" />
        </mxCell>
        <mxCell id="09KfeINo08MftnEIUnq--140" style="rounded=0;orthogonalLoop=1;jettySize=auto;html=1;exitX=0;exitY=0;exitDx=0;exitDy=0;entryX=1;entryY=0.75;entryDx=0;entryDy=0;endArrow=none;endFill=0;fontSize=16;" edge="1" parent="1" source="09KfeINo08MftnEIUnq--93" target="09KfeINo08MftnEIUnq--105">
          <mxGeometry relative="1" as="geometry" />
        </mxCell>
        <mxCell id="09KfeINo08MftnEIUnq--141" style="rounded=0;orthogonalLoop=1;jettySize=auto;html=1;exitX=0;exitY=0.5;exitDx=0;exitDy=0;endArrow=none;endFill=0;fontSize=16;" edge="1" parent="1" source="09KfeINo08MftnEIUnq--93" target="09KfeINo08MftnEIUnq--112">
          <mxGeometry relative="1" as="geometry" />
        </mxCell>
        <mxCell id="09KfeINo08MftnEIUnq--93" value="Solving a psychology/ academic problem" style="ellipse;whiteSpace=wrap;html=1;aspect=fixed;fontSize=16;" vertex="1" parent="1">
          <mxGeometry x="1692" y="952.5" width="147" height="147" as="geometry" />
        </mxCell>
        <mxCell id="09KfeINo08MftnEIUnq--159" style="edgeStyle=orthogonalEdgeStyle;rounded=0;orthogonalLoop=1;jettySize=auto;html=1;fontSize=16;" edge="1" parent="1" source="09KfeINo08MftnEIUnq--105" target="09KfeINo08MftnEIUnq--114">
          <mxGeometry relative="1" as="geometry" />
        </mxCell>
        <mxCell id="09KfeINo08MftnEIUnq--160" style="edgeStyle=orthogonalEdgeStyle;rounded=0;orthogonalLoop=1;jettySize=auto;html=1;entryX=1;entryY=1;entryDx=0;entryDy=0;fontSize=16;" edge="1" parent="1" source="09KfeINo08MftnEIUnq--105" target="09KfeINo08MftnEIUnq--113">
          <mxGeometry relative="1" as="geometry" />
        </mxCell>
        <mxCell id="09KfeINo08MftnEIUnq--105" value="Defining a research question" style="rounded=1;whiteSpace=wrap;html=1;fillColor=#e1d5e7;strokeColor=#9673a6;fontSize=16;" vertex="1" parent="1">
          <mxGeometry x="1517" y="900.5" width="120" height="77" as="geometry" />
        </mxCell>
        <mxCell id="09KfeINo08MftnEIUnq--157" style="edgeStyle=orthogonalEdgeStyle;rounded=0;orthogonalLoop=1;jettySize=auto;html=1;fontSize=16;" edge="1" parent="1" source="09KfeINo08MftnEIUnq--106" target="09KfeINo08MftnEIUnq--115">
          <mxGeometry relative="1" as="geometry" />
        </mxCell>
        <mxCell id="09KfeINo08MftnEIUnq--106" value="Conduct literature review" style="rounded=1;whiteSpace=wrap;html=1;direction=west;fillColor=#e1d5e7;strokeColor=#9673a6;fontSize=16;" vertex="1" parent="1">
          <mxGeometry x="1729" y="840.5" width="120" height="60" as="geometry" />
        </mxCell>
        <mxCell id="09KfeINo08MftnEIUnq--107" value="Formula research plan" style="rounded=1;whiteSpace=wrap;html=1;direction=west;fillColor=#e1d5e7;strokeColor=#9673a6;fontSize=16;" vertex="1" parent="1">
          <mxGeometry x="1883" y="904.5" width="120" height="60" as="geometry" />
        </mxCell>
        <mxCell id="09KfeINo08MftnEIUnq--153" style="edgeStyle=orthogonalEdgeStyle;rounded=0;orthogonalLoop=1;jettySize=auto;html=1;exitX=0.5;exitY=0;exitDx=0;exitDy=0;entryX=0;entryY=0.5;entryDx=0;entryDy=0;fontSize=16;" edge="1" parent="1" source="09KfeINo08MftnEIUnq--108" target="09KfeINo08MftnEIUnq--120">
          <mxGeometry relative="1" as="geometry" />
        </mxCell>
        <mxCell id="09KfeINo08MftnEIUnq--154" style="edgeStyle=orthogonalEdgeStyle;rounded=0;orthogonalLoop=1;jettySize=auto;html=1;exitX=0;exitY=0.5;exitDx=0;exitDy=0;fontSize=16;" edge="1" parent="1" source="09KfeINo08MftnEIUnq--108" target="09KfeINo08MftnEIUnq--119">
          <mxGeometry relative="1" as="geometry" />
        </mxCell>
        <mxCell id="09KfeINo08MftnEIUnq--108" value="Data colleciton" style="rounded=1;whiteSpace=wrap;html=1;direction=west;fillColor=#e1d5e7;strokeColor=#9673a6;fontSize=16;" vertex="1" parent="1">
          <mxGeometry x="2002" y="1019.5" width="120" height="60" as="geometry" />
        </mxCell>
        <mxCell id="09KfeINo08MftnEIUnq--151" style="edgeStyle=orthogonalEdgeStyle;rounded=0;orthogonalLoop=1;jettySize=auto;html=1;exitX=0.75;exitY=0;exitDx=0;exitDy=0;entryX=0.5;entryY=0;entryDx=0;entryDy=0;fontSize=16;" edge="1" parent="1" source="09KfeINo08MftnEIUnq--109" target="09KfeINo08MftnEIUnq--122">
          <mxGeometry relative="1" as="geometry" />
        </mxCell>
        <mxCell id="09KfeINo08MftnEIUnq--152" style="edgeStyle=orthogonalEdgeStyle;rounded=0;orthogonalLoop=1;jettySize=auto;html=1;exitX=0;exitY=0.5;exitDx=0;exitDy=0;entryX=0.5;entryY=0;entryDx=0;entryDy=0;fontSize=16;" edge="1" parent="1" source="09KfeINo08MftnEIUnq--109" target="09KfeINo08MftnEIUnq--121">
          <mxGeometry relative="1" as="geometry" />
        </mxCell>
        <mxCell id="09KfeINo08MftnEIUnq--109" value="Analyze Data" style="rounded=1;whiteSpace=wrap;html=1;direction=west;fillColor=#e1d5e7;strokeColor=#9673a6;fontSize=16;" vertex="1" parent="1">
          <mxGeometry x="1857" y="1110.5" width="120" height="61" as="geometry" />
        </mxCell>
        <mxCell id="09KfeINo08MftnEIUnq--110" value="Develop recommendations" style="rounded=1;whiteSpace=wrap;html=1;direction=west;fillColor=#e1d5e7;strokeColor=#9673a6;fontSize=16;" vertex="1" parent="1">
          <mxGeometry x="1720.5" y="1190.5" width="120" height="60" as="geometry" />
        </mxCell>
        <mxCell id="09KfeINo08MftnEIUnq--148" style="edgeStyle=orthogonalEdgeStyle;rounded=0;orthogonalLoop=1;jettySize=auto;html=1;entryX=0.5;entryY=0;entryDx=0;entryDy=0;fontSize=16;" edge="1" parent="1" source="09KfeINo08MftnEIUnq--111" target="09KfeINo08MftnEIUnq--125">
          <mxGeometry relative="1" as="geometry" />
        </mxCell>
        <mxCell id="09KfeINo08MftnEIUnq--111" value="Prepare findings" style="rounded=1;whiteSpace=wrap;html=1;direction=west;fillColor=#e1d5e7;strokeColor=#9673a6;fontSize=16;" vertex="1" parent="1">
          <mxGeometry x="1572" y="1106.5" width="120" height="60" as="geometry" />
        </mxCell>
        <mxCell id="09KfeINo08MftnEIUnq--143" style="edgeStyle=orthogonalEdgeStyle;rounded=0;orthogonalLoop=1;jettySize=auto;html=1;exitX=1;exitY=1;exitDx=0;exitDy=0;entryX=0;entryY=0;entryDx=0;entryDy=0;fontSize=16;" edge="1" parent="1" source="09KfeINo08MftnEIUnq--112" target="09KfeINo08MftnEIUnq--130">
          <mxGeometry relative="1" as="geometry" />
        </mxCell>
        <mxCell id="09KfeINo08MftnEIUnq--144" style="edgeStyle=orthogonalEdgeStyle;rounded=0;orthogonalLoop=1;jettySize=auto;html=1;exitX=1;exitY=0.5;exitDx=0;exitDy=0;entryX=0;entryY=1;entryDx=0;entryDy=0;fontSize=16;" edge="1" parent="1" source="09KfeINo08MftnEIUnq--112">
          <mxGeometry relative="1" as="geometry">
            <mxPoint x="1218.4264068711936" y="1079.2157287525383" as="targetPoint" />
          </mxGeometry>
        </mxCell>
        <mxCell id="09KfeINo08MftnEIUnq--112" value="Reflect, review, and apply findings" style="rounded=1;whiteSpace=wrap;html=1;direction=west;fillColor=#e1d5e7;strokeColor=#9673a6;fontSize=16;" vertex="1" parent="1">
          <mxGeometry x="1288" y="1042.5" width="120" height="60" as="geometry" />
        </mxCell>
        <mxCell id="09KfeINo08MftnEIUnq--113" value="Identify the focus" style="ellipse;whiteSpace=wrap;html=1;fontSize=16;" vertex="1" parent="1">
          <mxGeometry x="1347" y="794.5" width="120" height="80" as="geometry" />
        </mxCell>
        <mxCell id="09KfeINo08MftnEIUnq--114" value="Scope and objective" style="ellipse;whiteSpace=wrap;html=1;fontSize=16;" vertex="1" parent="1">
          <mxGeometry x="1501" y="724.5" width="120" height="80" as="geometry" />
        </mxCell>
        <mxCell id="09KfeINo08MftnEIUnq--115" value="Gather existing research" style="ellipse;whiteSpace=wrap;html=1;fontSize=16;" vertex="1" parent="1">
          <mxGeometry x="1656" y="703.5" width="120" height="80" as="geometry" />
        </mxCell>
        <mxCell id="09KfeINo08MftnEIUnq--116" value="Analyze trends" style="ellipse;whiteSpace=wrap;html=1;fontSize=16;" vertex="1" parent="1">
          <mxGeometry x="1827" y="714.5" width="120" height="80" as="geometry" />
        </mxCell>
        <mxCell id="09KfeINo08MftnEIUnq--117" value="Design study" style="ellipse;whiteSpace=wrap;html=1;fontSize=16;" vertex="1" parent="1">
          <mxGeometry x="1974" y="799.5" width="120" height="80" as="geometry" />
        </mxCell>
        <mxCell id="09KfeINo08MftnEIUnq--118" value="Create timeline" style="ellipse;whiteSpace=wrap;html=1;fontSize=16;" vertex="1" parent="1">
          <mxGeometry x="2055" y="884.5" width="120" height="80" as="geometry" />
        </mxCell>
        <mxCell id="09KfeINo08MftnEIUnq--119" value="Implement methods" style="ellipse;whiteSpace=wrap;html=1;fontSize=16;" vertex="1" parent="1">
          <mxGeometry x="2189" y="973.5" width="120" height="80" as="geometry" />
        </mxCell>
        <mxCell id="09KfeINo08MftnEIUnq--120" value="Ensure validity and reliability" style="ellipse;whiteSpace=wrap;html=1;fontSize=16;" vertex="1" parent="1">
          <mxGeometry x="2161" y="1087.5" width="120" height="80" as="geometry" />
        </mxCell>
        <mxCell id="09KfeINo08MftnEIUnq--121" value="Organize data" style="ellipse;whiteSpace=wrap;html=1;fontSize=16;" vertex="1" parent="1">
          <mxGeometry x="1988" y="1176.5" width="120" height="80" as="geometry" />
        </mxCell>
        <mxCell id="09KfeINo08MftnEIUnq--122" value="Interpret findings" style="ellipse;whiteSpace=wrap;html=1;fontSize=16;" vertex="1" parent="1">
          <mxGeometry x="1872" y="1240.5" width="120" height="80" as="geometry" />
        </mxCell>
        <mxCell id="09KfeINo08MftnEIUnq--123" value="Draw conclusions" style="ellipse;whiteSpace=wrap;html=1;fontSize=16;" vertex="1" parent="1">
          <mxGeometry x="1767" y="1348" width="120" height="80" as="geometry" />
        </mxCell>
        <mxCell id="09KfeINo08MftnEIUnq--124" value="Propose a solution" style="ellipse;whiteSpace=wrap;html=1;fontSize=16;" vertex="1" parent="1">
          <mxGeometry x="1647" y="1348" width="120" height="80" as="geometry" />
        </mxCell>
        <mxCell id="09KfeINo08MftnEIUnq--125" value="Write a report" style="ellipse;whiteSpace=wrap;html=1;fontSize=16;" vertex="1" parent="1">
          <mxGeometry x="1542" y="1276.5" width="120" height="80" as="geometry" />
        </mxCell>
        <mxCell id="09KfeINo08MftnEIUnq--126" value="Share results" style="ellipse;whiteSpace=wrap;html=1;fontSize=16;" vertex="1" parent="1">
          <mxGeometry x="1365" y="1240.5" width="120" height="80" as="geometry" />
        </mxCell>
        <mxCell id="09KfeINo08MftnEIUnq--127" value="Evaluate the process" style="ellipse;whiteSpace=wrap;html=1;direction=west;fontSize=16;" vertex="1" parent="1">
          <mxGeometry x="1397" y="1142.5" width="120" height="80" as="geometry" />
        </mxCell>
        <mxCell id="09KfeINo08MftnEIUnq--128" value="Seek feedback" style="ellipse;whiteSpace=wrap;html=1;direction=west;fontSize=16;" vertex="1" parent="1">
          <mxGeometry x="1245" y="1146.5" width="120" height="80" as="geometry" />
        </mxCell>
        <mxCell id="09KfeINo08MftnEIUnq--129" value="Implement changes" style="ellipse;whiteSpace=wrap;html=1;direction=west;fontSize=16;" vertex="1" parent="1">
          <mxGeometry x="1100" y="1036" width="120" height="80" as="geometry" />
        </mxCell>
        <mxCell id="09KfeINo08MftnEIUnq--130" value="Record insights" style="ellipse;whiteSpace=wrap;html=1;direction=west;fontSize=16;" vertex="1" parent="1">
          <mxGeometry x="1154" y="939.5" width="120" height="80" as="geometry" />
        </mxCell>
        <mxCell id="09KfeINo08MftnEIUnq--131" value="Archive materials" style="ellipse;whiteSpace=wrap;html=1;direction=west;fontSize=16;" vertex="1" parent="1">
          <mxGeometry x="1314" y="923.5" width="120" height="80" as="geometry" />
        </mxCell>
        <mxCell id="09KfeINo08MftnEIUnq--134" style="rounded=0;orthogonalLoop=1;jettySize=auto;html=1;exitX=0;exitY=1;exitDx=0;exitDy=0;entryX=0.094;entryY=0.928;entryDx=0;entryDy=0;entryPerimeter=0;endArrow=none;endFill=0;fontSize=16;" edge="1" parent="1" source="09KfeINo08MftnEIUnq--93" target="09KfeINo08MftnEIUnq--111">
          <mxGeometry relative="1" as="geometry" />
        </mxCell>
        <mxCell id="09KfeINo08MftnEIUnq--139" style="rounded=0;orthogonalLoop=1;jettySize=auto;html=1;exitX=0.5;exitY=0;exitDx=0;exitDy=0;entryX=0.631;entryY=0.011;entryDx=0;entryDy=0;entryPerimeter=0;endArrow=none;endFill=0;fontSize=16;" edge="1" parent="1" source="09KfeINo08MftnEIUnq--93" target="09KfeINo08MftnEIUnq--106">
          <mxGeometry relative="1" as="geometry" />
        </mxCell>
        <mxCell id="09KfeINo08MftnEIUnq--142" style="edgeStyle=orthogonalEdgeStyle;rounded=0;orthogonalLoop=1;jettySize=auto;html=1;exitX=0.5;exitY=1;exitDx=0;exitDy=0;entryX=0.661;entryY=0.033;entryDx=0;entryDy=0;entryPerimeter=0;fontSize=16;" edge="1" parent="1" source="09KfeINo08MftnEIUnq--112" target="09KfeINo08MftnEIUnq--131">
          <mxGeometry relative="1" as="geometry" />
        </mxCell>
        <mxCell id="09KfeINo08MftnEIUnq--145" style="edgeStyle=orthogonalEdgeStyle;rounded=0;orthogonalLoop=1;jettySize=auto;html=1;exitX=0.5;exitY=0;exitDx=0;exitDy=0;entryX=0.419;entryY=0.938;entryDx=0;entryDy=0;entryPerimeter=0;fontSize=16;" edge="1" parent="1" source="09KfeINo08MftnEIUnq--112" target="09KfeINo08MftnEIUnq--128">
          <mxGeometry relative="1" as="geometry" />
        </mxCell>
        <mxCell id="09KfeINo08MftnEIUnq--146" style="edgeStyle=orthogonalEdgeStyle;rounded=0;orthogonalLoop=1;jettySize=auto;html=1;exitX=0;exitY=0;exitDx=0;exitDy=0;entryX=0.767;entryY=0.854;entryDx=0;entryDy=0;entryPerimeter=0;fontSize=16;" edge="1" parent="1" source="09KfeINo08MftnEIUnq--112" target="09KfeINo08MftnEIUnq--127">
          <mxGeometry relative="1" as="geometry" />
        </mxCell>
        <mxCell id="09KfeINo08MftnEIUnq--147" style="edgeStyle=orthogonalEdgeStyle;rounded=0;orthogonalLoop=1;jettySize=auto;html=1;exitX=1;exitY=0.25;exitDx=0;exitDy=0;entryX=0.725;entryY=0.088;entryDx=0;entryDy=0;entryPerimeter=0;fontSize=16;" edge="1" parent="1" source="09KfeINo08MftnEIUnq--111" target="09KfeINo08MftnEIUnq--126">
          <mxGeometry relative="1" as="geometry">
            <Array as="points">
              <mxPoint x="1572" y="1197.5" />
              <mxPoint x="1545" y="1197.5" />
              <mxPoint x="1545" y="1247.5" />
            </Array>
          </mxGeometry>
        </mxCell>
        <mxCell id="09KfeINo08MftnEIUnq--149" style="edgeStyle=orthogonalEdgeStyle;rounded=0;orthogonalLoop=1;jettySize=auto;html=1;exitX=0.75;exitY=0;exitDx=0;exitDy=0;entryX=0.639;entryY=0.075;entryDx=0;entryDy=0;entryPerimeter=0;fontSize=16;" edge="1" parent="1" source="09KfeINo08MftnEIUnq--110">
          <mxGeometry relative="1" as="geometry">
            <mxPoint x="1709.1799999999998" y="1350.5" as="targetPoint" />
          </mxGeometry>
        </mxCell>
        <mxCell id="09KfeINo08MftnEIUnq--150" style="edgeStyle=orthogonalEdgeStyle;rounded=0;orthogonalLoop=1;jettySize=auto;html=1;exitX=0.5;exitY=0;exitDx=0;exitDy=0;entryX=0.356;entryY=0.021;entryDx=0;entryDy=0;entryPerimeter=0;fontSize=16;" edge="1" parent="1" source="09KfeINo08MftnEIUnq--110">
          <mxGeometry relative="1" as="geometry">
            <mxPoint x="1821.2200000000003" y="1349.1799999999994" as="targetPoint" />
          </mxGeometry>
        </mxCell>
        <mxCell id="09KfeINo08MftnEIUnq--155" style="edgeStyle=orthogonalEdgeStyle;rounded=0;orthogonalLoop=1;jettySize=auto;html=1;exitX=0;exitY=0.25;exitDx=0;exitDy=0;entryX=0.072;entryY=0.733;entryDx=0;entryDy=0;entryPerimeter=0;fontSize=16;" edge="1" parent="1" source="09KfeINo08MftnEIUnq--107" target="09KfeINo08MftnEIUnq--118">
          <mxGeometry relative="1" as="geometry" />
        </mxCell>
        <mxCell id="09KfeINo08MftnEIUnq--156" style="edgeStyle=orthogonalEdgeStyle;rounded=0;orthogonalLoop=1;jettySize=auto;html=1;exitX=0.5;exitY=1;exitDx=0;exitDy=0;entryX=0.025;entryY=0.696;entryDx=0;entryDy=0;entryPerimeter=0;fontSize=16;" edge="1" parent="1" source="09KfeINo08MftnEIUnq--107" target="09KfeINo08MftnEIUnq--117">
          <mxGeometry relative="1" as="geometry" />
        </mxCell>
        <mxCell id="09KfeINo08MftnEIUnq--158" style="edgeStyle=orthogonalEdgeStyle;rounded=0;orthogonalLoop=1;jettySize=auto;html=1;exitX=0.25;exitY=1;exitDx=0;exitDy=0;entryX=0.275;entryY=0.983;entryDx=0;entryDy=0;entryPerimeter=0;fontSize=16;" edge="1" parent="1" source="09KfeINo08MftnEIUnq--106" target="09KfeINo08MftnEIUnq--116">
          <mxGeometry relative="1" as="geometry" />
        </mxCell>
        <mxCell id="09KfeINo08MftnEIUnq--161" value="&lt;h1 style=&quot;margin-top: 0px;&quot;&gt;The scientific approach&lt;/h1&gt;&lt;p&gt;John sticks true to the scientific method as seen by the process he described in the interview, which makes sense as he has worked in academia, specifically in psychology, which is stringent on the approach to solving problems, being proposing a research plan, and executing it. This process also involves a lot of planning before the actual execution of the process, but what is also important to note is the emphasis placed on the results collected of the study, and making recommendations for solutions based on the data collected&lt;/p&gt;" style="text;html=1;whiteSpace=wrap;overflow=hidden;rounded=0;" vertex="1" parent="1">
          <mxGeometry x="2156" y="676" width="308" height="220" as="geometry" />
        </mxCell>
      </root>
    </mxGraphModel>
  </diagram>
</mxfile>
